<?xml version="1.0" encoding="UTF-8"?> <svg xmlns="http://www.w3.org/2000/svg" width="60" height="50" viewBox="0 0 60 50" fill="#FF5E2B"><path d="M49.4531 25.0675V5.72266C49.4531 2.81488 47.0875 0.449219 44.1797 0.449219H5.27344C2.36566 0.449219 0 2.81488 0 5.72266V31.7383C0 34.6461 2.36566 37.0117 5.27344 37.0117H35.3936C35.392 37.0898 35.3906 37.1677 35.3906 37.2461C35.3906 44.0309 40.9105 49.5508 47.6953 49.5508C54.4801 49.5508 60 44.0309 60 37.2461C60 31.058 55.4082 25.9231 49.4531 25.0675ZM5.27344 3.96484H44.1797C45.1489 3.96484 45.9375 4.7534 45.9375 5.72266V6.77734H3.51562V5.72266C3.51562 4.7534 4.30418 3.96484 5.27344 3.96484ZM3.51562 10.293H45.9375V13.8086H3.51562V10.293ZM5.27344 33.4961C4.30418 33.4961 3.51562 32.7075 3.51562 31.7383V17.3242H45.9375V25.0675C41.2404 25.7424 37.3921 29.0795 35.9756 33.4961H5.27344ZM47.6953 46.0352C42.849 46.0352 38.9062 42.0924 38.9062 37.2461C38.9062 32.3998 42.849 28.457 47.6953 28.457C52.5416 28.457 56.4844 32.3998 56.4844 37.2461C56.4844 42.0924 52.5416 46.0352 47.6953 46.0352Z"></path><path d="M50.261 34.011L47.2852 36.9868L46.3601 36.0617C45.6737 35.3752 44.5607 35.3752 43.8742 36.0617C43.1877 36.7482 43.1877 37.8611 43.8742 38.5476L46.0421 40.7155C46.3854 41.0588 46.8353 41.2305 47.285 41.2305C47.7348 41.2305 48.1848 41.0589 48.5279 40.7155L52.7467 36.4968C53.4332 35.8103 53.4332 34.6974 52.7467 34.0109C52.0604 33.3244 50.9474 33.3244 50.261 34.011Z"></path><path d="M8.78906 24.3556H13.1836C14.1544 24.3556 14.9414 23.5686 14.9414 22.5978C14.9414 21.627 14.1544 20.84 13.1836 20.84H8.78906C7.81828 20.84 7.03125 21.627 7.03125 22.5978C7.03125 23.5686 7.81828 24.3556 8.78906 24.3556Z"></path><path d="M18.75 26.4648H8.78906C7.81828 26.4648 7.03125 27.2519 7.03125 28.2227C7.03125 29.1934 7.81828 29.9805 8.78906 29.9805H18.75C19.7208 29.9805 20.5078 29.1934 20.5078 28.2227C20.5078 27.2519 19.7208 26.4648 18.75 26.4648Z"></path></svg> 