<?xml version="1.0" encoding="UTF-8"?> <svg xmlns="http://www.w3.org/2000/svg" width="48" height="48" viewBox="0 0 48 48" fill="#FF5E2B"><path d="M45.9394 35.9985C45.397 35.4563 34.4896 24.5509 33.9474 24.0089C34.083 23.8733 46.627 11.3236 46.7629 11.1877C48.4073 9.54323 48.4073 6.86751 46.7629 5.22314L42.7865 1.24664C41.1422 -0.397737 38.4664 -0.397736 36.8217 1.24683L24.0056 14.0689L18.0059 8.07042C17.6329 7.69739 17.1886 7.39701 16.7199 7.19123L2.31495 0.160826C2.29413 0.150701 2.27313 0.141045 2.25195 0.131951C1.64163 -0.12933 0.943853 0.00491983 0.474259 0.47442C0.00475898 0.944014 -0.129679 1.64179 0.13179 2.25211C0.14079 2.27311 0.150353 2.29392 0.160384 2.31454L7.18554 16.725C7.38532 17.1802 7.67932 17.6258 8.06492 18.0116L14.0645 24.01L1.24648 36.8221C-0.397897 38.4666 -0.397897 41.1423 1.24648 42.7867L5.22298 46.7632C6.04526 47.5856 7.12517 47.9966 8.20526 47.9966C9.28507 47.9966 10.3653 47.5855 11.1872 46.7634C11.5639 46.3869 23.6287 34.3274 24.0064 33.95C24.5912 34.5347 35.3965 45.3379 35.9983 45.9396C38.7454 48.6868 43.1918 48.6871 45.9394 45.9396C48.6866 43.1926 48.6871 38.7461 45.9394 35.9985ZM38.8101 3.23489C39.3584 2.68673 40.2503 2.68683 40.7983 3.23489L44.7748 7.21139C45.3229 7.75954 45.3229 8.65148 44.7746 9.19983L43.7809 10.194L42.7866 9.19964C42.2377 8.65064 41.3475 8.65064 40.7985 9.19964C40.2495 9.74864 40.2495 10.6388 40.7985 11.1878L41.7933 12.1826L39.9147 14.062L36.9343 11.0818C36.3854 10.5328 35.4951 10.5328 34.9461 11.0818C34.3971 11.6308 34.3971 12.5209 34.9461 13.0699L37.9268 16.0506L35.939 18.0392L34.9461 17.0462C34.397 16.4972 33.507 16.4973 32.958 17.0462C32.409 17.5952 32.409 18.4854 32.958 19.0344L33.9514 20.0279L31.9593 22.021L25.994 16.0569L38.8101 3.23489ZM5.90257 7.67676L4.2162 4.21739L7.67332 5.9047C7.22295 6.61711 6.6147 7.22592 5.90257 7.67676ZM7.14138 10.2179C8.4192 9.47995 9.47613 8.42273 10.2137 7.14454L14.2218 9.10064L9.0957 14.2267L7.14138 10.2179ZM20.034 33.9452L19.0406 32.9519C18.4916 32.4029 17.6014 32.4029 17.0524 32.9519C16.5034 33.5009 16.5034 34.391 17.0524 34.94L18.0454 35.933L16.0568 37.9207L13.0761 34.94C12.5272 34.391 11.637 34.391 11.088 34.94C10.539 35.489 10.539 36.3792 11.088 36.9282L14.0682 39.9084L12.1825 41.7932L11.1877 40.7985C10.6388 40.2495 9.74857 40.2495 9.19957 40.7985C8.65057 41.3475 8.65057 42.2376 9.19957 42.7866L10.1939 43.7809L9.19957 44.7748C8.65151 45.3229 7.75957 45.323 7.21142 44.7748L3.23492 40.7983C2.68685 40.2501 2.68685 39.3582 3.23473 38.8103L16.0532 25.9977L22.0184 31.9618L20.034 33.9452ZM10.6643 16.6344L16.629 10.6697C17.9719 12.0123 36.8441 30.8809 37.0954 31.1322L31.1307 37.0968L10.6643 16.6344ZM35.0041 40.9694L33.119 39.0847L39.0837 33.12L40.9687 35.0047L35.0041 40.9694ZM43.9513 43.9515C42.3032 45.5997 39.6352 45.6 37.9866 43.9514L36.9925 42.9575L42.9572 36.9929L43.9514 37.9868C44.7481 38.7835 45.1866 39.8426 45.1866 40.9691C45.1866 42.0957 44.7479 43.1548 43.9513 43.9515Z"></path></svg> 