<?xml version="1.0" encoding="UTF-8"?> <svg xmlns="http://www.w3.org/2000/svg" width="48" height="48" viewBox="0 0 48 48" fill="#FF5E2B"><path d="M15.5626 8.4375C11.6855 8.4375 8.53131 11.5917 8.53131 15.4688C8.53131 19.3458 11.6855 22.5 15.5626 22.5C19.4396 22.5 22.5938 19.3458 22.5938 15.4688C22.5938 11.5917 19.4396 8.4375 15.5626 8.4375ZM15.5626 19.6875C13.2363 19.6875 11.3438 17.795 11.3438 15.4688C11.3438 13.1425 13.2363 11.25 15.5626 11.25C17.8888 11.25 19.7813 13.1425 19.7813 15.4688C19.7813 17.795 17.8888 19.6875 15.5626 19.6875Z"></path><path d="M24.0001 25.3125C24.7767 25.3125 25.4063 24.6829 25.4063 23.9062C25.4063 23.1296 24.7767 22.5 24.0001 22.5C23.2234 22.5 22.5938 23.1296 22.5938 23.9062C22.5938 24.6829 23.2234 25.3125 24.0001 25.3125Z"></path><path d="M46.5938 19.6875C46.0392 19.6875 31.9111 19.6875 31.0313 19.6875V15.4688C31.0313 14.9947 31.0087 14.5258 30.9667 14.0625H32.4376C33.2142 14.0625 33.8438 13.4329 33.8438 12.6562V7.03125C33.8438 4.70503 31.9513 2.8125 29.6251 2.8125H24.4461C21.9305 1.04147 18.866 0 15.5626 0C6.98134 0 6.10352e-05 6.93928 6.10352e-05 15.4688C6.10352e-05 23.9982 6.98134 30.9375 15.5626 30.9375H29.6251C30.4017 30.9375 31.0313 30.3079 31.0313 29.5312V28.125C31.7078 28.125 44.7602 28.125 45.1876 28.125V29.5312C45.1876 30.3079 45.8172 30.9375 46.5938 30.9375C47.3704 30.9375 48.0001 30.3079 48.0001 29.5312C48.0001 28.4709 48.0001 21.9604 48.0001 21.0938C48.0001 20.3171 47.3704 19.6875 46.5938 19.6875ZM28.2188 21.0938C28.2188 21.8284 28.2188 27.4281 28.2188 28.125H15.5626C8.53216 28.125 2.81256 22.4474 2.81256 15.4688C2.81256 8.49009 8.53225 2.8125 15.5626 2.8125C22.5412 2.8125 28.2188 8.49009 28.2188 15.4688V21.0938ZM30.4465 11.25C29.8541 9.16294 28.8335 7.25419 27.4862 5.625H29.6251C30.4005 5.625 31.0313 6.25584 31.0313 7.03125V11.25H30.4465ZM39.4688 25.3125H31.0313V22.5H39.4688V25.3125ZM45.1876 25.3125H42.2813V22.5H45.1876V25.3125Z"></path><path d="M46.5938 36.75H1.40631C0.629686 36.75 6.10352e-05 37.3796 6.10352e-05 38.1562V46.5938C6.10352e-05 47.3704 0.629686 48 1.40631 48H46.5938C47.3704 48 48.0001 47.3704 48.0001 46.5938V38.1562C48.0001 37.3796 47.3704 36.75 46.5938 36.75ZM45.1876 45.1875H2.81256V39.5625H9.93756V40.9688C9.93756 41.7454 10.5672 42.375 11.3438 42.375C12.1204 42.375 12.7501 41.7454 12.7501 40.9688V39.5625H18.3751V40.9688C18.3751 41.7454 19.0047 42.375 19.7813 42.375C20.5579 42.375 21.1876 41.7454 21.1876 40.9688V39.5625H26.8126V40.9688C26.8126 41.7454 27.4422 42.375 28.2188 42.375C28.9954 42.375 29.6251 41.7454 29.6251 40.9688V39.5625H35.2501V40.9688C35.2501 41.7454 35.8797 42.375 36.6563 42.375C37.4329 42.375 38.0626 41.7454 38.0626 40.9688V39.5625H45.1876V45.1875Z"></path></svg> 