<?xml version="1.0" encoding="UTF-8"?> <svg xmlns="http://www.w3.org/2000/svg" width="60" height="60" viewBox="0 0 60 60" fill="#FF5E2B"><path d="M59.9995 57.3569C59.9991 55.2393 58.7398 53.335 56.7911 52.506L41.8442 46.1467V42.42C43.4267 40.4333 44.4273 38.0672 44.7624 35.5266H47.818C50.7257 35.5266 53.0914 33.1609 53.0914 30.2531V22.6932C53.0914 20.0345 51.113 17.8304 48.5513 17.4719C48.1714 6.0347 41.7769 0 30 0C18.2231 0 11.8286 6.0347 11.4487 17.4719C8.88702 17.8304 6.90857 20.0345 6.90857 22.6932V30.2531C6.90857 33.1609 9.27429 35.5266 12.182 35.5266H15.2376C15.5727 38.0676 16.5733 40.4338 18.1558 42.42V46.1467L3.20938 52.506C1.26022 53.335 0.000915527 55.2393 0 57.3573V58.2413C0 58.7077 0.184936 59.155 0.514984 59.4846C0.844574 59.8141 1.29181 59.9995 1.75781 59.9995H58.2422C58.7086 59.9995 59.1559 59.8141 59.4855 59.4846C59.8151 59.1545 60 58.7073 60 58.2413L59.9995 57.3569ZM38.3304 47.3799C38.3318 47.422 38.4302 51.6884 35.9102 54.3127C34.5264 55.7533 32.5378 56.4835 30 56.4835C27.4713 56.4835 25.4878 55.7584 24.1049 54.3283C21.5547 51.6902 21.6687 47.417 21.6696 47.3799C21.671 47.3561 21.6714 47.3328 21.6714 47.309V45.5685C24.0784 47.0915 26.9495 47.9095 30 47.9095C33.0505 47.9095 35.9216 47.0915 38.3286 45.5685V47.309C38.3286 47.3328 38.329 47.3561 38.3304 47.3799V47.3799ZM41.3727 32.8281L38.0287 35.0578C36.9667 35.766 35.7303 36.1404 34.4531 36.1404H31.4799C30.5095 36.1404 29.7221 36.9273 29.7221 37.8983C29.7221 38.8692 30.5095 39.6561 31.4799 39.6561H34.4531C36.4265 39.6561 38.3377 39.0775 39.9792 37.9825L40.6522 37.5339C39.066 41.6267 35.0093 44.3939 30 44.3939C23.5167 44.3939 18.6273 39.7591 18.6273 33.6127V19.362C19.3204 16.1403 20.3242 14.0927 21.5346 13.4363C22.7399 12.7817 24.4913 13.4624 26.185 14.1202C27.5047 14.6324 28.7512 15.1167 30 15.1167C31.2602 15.1167 32.4916 14.6274 33.7958 14.1096C35.4913 13.4358 37.093 12.7995 38.2796 13.4184C39.1443 13.8693 40.377 15.2733 41.3727 19.3845V32.8281ZM49.5758 22.6932V30.2531C49.5758 31.2222 48.7871 32.011 47.818 32.011H44.8883V20.9354H47.818C48.7871 20.9354 49.5758 21.7241 49.5758 22.6932V22.6932ZM18.0981 7.82181C20.5325 4.96445 24.5366 3.51562 30 3.51562C35.4634 3.51562 39.4675 4.96445 41.9019 7.82181C43.8185 10.0717 44.8686 13.2976 45.0311 17.4197H44.4919C43.4303 13.6496 41.9572 11.3713 39.9051 10.3011C37.2908 8.93784 34.633 9.99344 32.4976 10.8421C31.5582 11.2152 30.5869 11.6011 29.9995 11.6011C29.4095 11.6011 28.4171 11.2157 27.4576 10.843C25.2466 9.98383 22.4945 8.91495 19.8573 10.3459C17.8688 11.4253 16.4291 13.7466 15.4756 17.4197H14.9689C15.1309 13.2976 16.1815 10.0717 18.0981 7.82181ZM10.4242 30.2531V22.6932C10.4242 21.7241 11.2129 20.9354 12.182 20.9354H15.1117V32.011H12.182C11.2129 32.011 10.4242 31.2222 10.4242 30.2531ZM4.58542 55.741L18.3572 49.8816C18.6658 51.7891 19.4321 54.3846 21.3107 56.4839H3.74817C3.93448 56.1584 4.2247 55.8943 4.58542 55.741V55.741ZM38.6893 56.4839C40.5679 54.3846 41.3342 51.7891 41.6428 49.8816L55.4146 55.741C55.7753 55.8943 56.0651 56.1584 56.2518 56.4839H38.6893Z"></path></svg> 