<?xml version="1.0" encoding="utf-8"?>
<svg viewBox="0 0 391.173 165.659" xmlns="http://www.w3.org/2000/svg">
  <g id="Layer1000" transform="matrix(1, 0, 0, 1, -67.439072, -520.765869)">
    <defs id="defs13">
      <linearGradient id="grad1">
        <stop offset="0" stop-color="#009035" stop-opacity="1.0000" id="stop2"/>
        <stop offset="0.2" stop-color="#009035" stop-opacity="1.0000" id="stop4"/>
        <stop offset="0.43" stop-color="#9ac105" stop-opacity="1.0000" id="stop6"/>
        <stop offset="0.65" stop-color="#b1c900" stop-opacity="1.0000" id="stop8"/>
        <stop offset="1" stop-color="#dce281" stop-opacity="1.0000" id="stop10"/>
      </linearGradient>
    </defs>
    <path d="m 87.6044,573.0418 94.8294,-44.5009 24.353,11.8389 v -19.4819 h 21.2905 V 550.73 l 54.2424,26.3696 v 20.52 l -98.129,-48.1113 -96.5863,45.3254 z" style="fill:url(#grad1)" id="path15"/>
    <defs id="defs28">
      <linearGradient id="grad2">
        <stop offset="0" stop-color="#009035" stop-opacity="1.0000" id="stop17"/>
        <stop offset="0.2" stop-color="#009035" stop-opacity="1.0000" id="stop19"/>
        <stop offset="0.43" stop-color="#9ac105" stop-opacity="1.0000" id="stop21"/>
        <stop offset="0.65" stop-color="#b1c900" stop-opacity="1.0000" id="stop23"/>
        <stop offset="1" stop-color="#dce281" stop-opacity="1.0000" id="stop25"/>
      </linearGradient>
    </defs>
    <path d="m 248.3342,560.5778 39.4027,-18.72 19.6509,9.6721 v -15.9157 h 17.1803 v 24.3706 l 43.7703,21.5425 v 16.7638 l -80.4101,-39.8996 -22.2993,10.5942 z" style="fill:url(#grad2)" id="path30"/>
    <defs id="defs43">
      <linearGradient id="grad3">
        <stop offset="0" stop-color="#009035" stop-opacity="1.0000" id="stop32"/>
        <stop offset="0.2" stop-color="#009035" stop-opacity="1.0000" id="stop34"/>
        <stop offset="0.43" stop-color="#9ac105" stop-opacity="1.0000" id="stop36"/>
        <stop offset="0.65" stop-color="#b1c900" stop-opacity="1.0000" id="stop38"/>
        <stop offset="1" stop-color="#dce281" stop-opacity="1.0000" id="stop40"/>
      </linearGradient>
    </defs>
    <path d="m 345.3814,570.2287 29.134,-13.8416 14.2976,6.6654 v -12.024 h 12.2341 v 18.4113 l 33.0673,16.2748 v 12.6646 l -59.4545,-29.5012 -16.2941,7.7411 z" style="fill:url(#grad3)" id="path45"/>
    <defs id="defs66">
      <linearGradient id="grad4">
        <stop offset="0" stop-color="#006b30" stop-opacity="1.0000" id="stop51"/>
        <stop offset="0.14" stop-color="#009035" stop-opacity="1.0000" id="stop53"/>
        <stop offset="0.3" stop-color="#b1c900" stop-opacity="1.0000" id="stop55"/>
        <stop offset="0.5" stop-color="#b1c900" stop-opacity="1.0000" id="stop57"/>
        <stop offset="0.73" stop-color="#b1c900" stop-opacity="1.0000" id="stop59"/>
        <stop offset="0.88" stop-color="#009035" stop-opacity="1.0000" id="stop61"/>
        <stop offset="1" stop-color="#006b30" stop-opacity="1.0000" id="stop63"/>
      </linearGradient>
    </defs>
    <path d="m 123.2396,629.7758 h 15.1888 l 0.6743,-9.9678 h -15.1888 z m 295.4821,9.2299 -1.4848,9.2817 c 4.9994,0 11.2048,-3.7973 19.243,-3.7973 4.0666,0 9.4894,3.8827 4.739,7.7809 -5.1714,4.2429 -20.4701,3.3692 -27.8489,10.4247 -5.5798,5.3353 -5.7587,16.3726 0.5108,20.4565 6.3097,4.1099 14.2664,2.6614 21.4858,1.6047 l 2.7914,-8.9397 c -2.2466,0.6217 -7.1098,1.9395 -10.5926,1.4596 -2.3827,-0.3283 -4.1192,-1.4978 -3.9291,-4.3075 l 0.0642,-0.9491 c 0.1325,-1.9596 2.106,-3.6229 4.7665,-4.9955 4.4342,-2.2875 10.7768,-3.7686 13.6851,-4.4711 l -2.7056,22.2823 h 14.7141 l 3.8645,-36.0739 c 0.1632,-1.2858 0.1609,-2.4577 0.0114,-3.5215 -0.413,-2.941 -1.9502,-5.057 -4.2217,-6.4814 -8.2989,-5.2045 -25.8868,-1.3658 -35.0931,0.2466 z m -50.6887,8.386 20.2862,-0.1474 -24.4559,26.6746 -0.7823,11.5642 37.8443,-0.009 1.2713,-10.2195 h -20.8848 l 24.0867,-25.882 2.1861,-12.0464 h -38.4472 z m -46.154,0 20.2862,-0.1474 -24.4558,26.6746 -0.7823,11.5642 37.8442,-0.009 1.2713,-10.2195 h -20.8848 l 24.0867,-25.882 2.1861,-12.0464 h -38.4472 z m -49.3655,-8.386 -1.4848,9.2817 c 4.9994,0 11.2048,-3.7973 19.243,-3.7973 4.0666,0 9.4894,3.8827 4.739,7.7809 -5.1714,4.2429 -20.4701,3.3692 -27.8489,10.4247 -5.5798,5.3353 -5.7587,16.3726 0.5108,20.4565 6.3097,4.1099 14.2665,2.6614 21.4858,1.6047 l 2.7914,-8.9397 c -2.2466,0.6217 -7.1098,1.9395 -10.5926,1.4596 -2.3827,-0.3283 -4.1192,-1.4978 -3.9291,-4.3075 l 0.0642,-0.9491 c 0.1326,-1.9596 2.106,-3.6229 4.7665,-4.9955 4.4342,-2.2875 10.7769,-3.7686 13.6851,-4.4711 l -2.7056,22.2823 h 14.7141 l 3.8645,-36.0739 c 0.1632,-1.2858 0.1609,-2.4577 0.0114,-3.5215 -0.413,-2.941 -1.9502,-5.057 -4.2216,-6.4814 -8.299,-5.2045 -25.8869,-1.3658 -35.0932,0.2466 z M 71.9056,637.8449 c -0.5314,7.8559 8.5715,15.8218 13.1149,19.7257 1.9305,1.6588 6.9917,6.6657 7.7665,8.8024 1.6591,4.5752 -4.7316,8.0204 -8.6395,8.0204 -7.7099,0 -12.3563,-4.2718 -16.8492,-4.2679 l 0.0518,13.5097 16.5013,2.1498 h 2.3732 c 8.9645,0 18.4148,-3.9107 21.4322,-11.1209 1.7241,-4.1202 1.7588,-10.4247 -0.1652,-14.1432 -2.7029,-5.2237 -8.5688,-9.9269 -11.6326,-12.6572 -2.4027,-2.1411 -6.458,-5.4295 -7.4832,-8.6154 -1.4691,-4.5652 4.1544,-8.0484 8.1867,-8.0484 5.911,0 9.5503,2.848 13.5306,2.8497 l 0.4561,-12.9396 c -9.1816,-0.8731 -21.0812,-2.9979 -30.3988,1.9273 -4.9388,2.6104 -7.7769,7.8916 -8.2448,14.8076 z m 109.1817,20.8848 -0.2247,3.3225 c -0.5269,8.7432 -6.0213,13.2607 -11.2634,13.5711 -5.2424,0.3104 -10.2326,-3.5861 -9.7502,-11.6722 l 0.4174,-6.1704 1.1391,-10.067 c 6.1688,-1.048 13.4298,-1.8232 17.1756,2.8006 1.4656,1.8094 2.3933,4.4456 2.5062,8.2154 z m -37.4862,26.1062 h 13.886 l 0.3211,-4.7466 c 1.8133,1.9075 3.9929,3.4869 6.45,4.5751 5.4068,2.3933 12.16,2.4069 19.3227,-1.7095 7.0494,-4.0507 11.4165,-12.3395 12.0279,-21.3772 l 0.3211,-4.7466 c 0.527,-7.7911 -1.7587,-14.1154 -6.9745,-17.2701 -7.5515,-4.5672 -16.8132,-3.2219 -25.6549,-2.2677 l 1.6834,-14.1625 0.1285,-1.8986 h -15.1889 z m -26.4598,0 h 15.6637 c 0.7672,-16.0378 2.8173,-31.9164 4.667,-47.9403 h -15.1889 c -1.0816,15.9885 -2.8374,31.2752 -5.1418,47.9403 z m 112.0179,-9.8104 -9.4865,-0.006 1.3817,-17.7137 h 11.3918 c 4.9587,0 9.9255,2.9505 9.59,7.9103 -0.4373,6.4639 -6.3,9.8093 -12.877,9.8093 z m 2.7464,-27.629 h -9.0184 l 1.3252,-15.7221 h 10.4423 c 4.2769,0 8.4028,2.0858 8.1265,6.1705 -0.1416,2.0928 -0.9076,3.9594 -2.1092,5.4748 -2.0028,2.5257 -5.2162,4.0768 -8.7664,4.0768 z m -27.8881,37.5367 28.3968,-0.1114 c 11.3768,0.6208 23.4901,-3.0702 24.7703,-17.4317 0.442,-4.962 -1.0325,-9.9881 -4.8889,-13.2837 -1.3487,-1.1523 -2.8836,-1.9026 -4.3074,-2.0217 3.1711,-1.7628 9.2788,-3.8489 10.0139,-14.7143 0.8324,-8.538 -3.4657,-15.725 -13.1479,-16.1382 l -34.1612,0.0972 z" style="fill:url(#grad4)" id="path68"/>
  </g>
</svg>